<svg xmlns="http://www.w3.org/2000/svg" width="760" height="420" viewBox="0 0 760 420" role="img" aria-label="Breast Cancer scree plot">
  <rect width="760" height="420" rx="24" fill="#fbf8f1"/>
  <rect x="40" y="36" width="680" height="320" rx="22" fill="#ffffff" stroke="#d9ddd8"/>
  <line x1="84" y1="320" x2="680" y2="320" stroke="#cfd6d2"/>
  <line x1="84" y1="88" x2="84" y2="320" stroke="#cfd6d2"/>
  <text x="382" y="384" text-anchor="middle" font-family="Georgia, serif" font-size="16" fill="#5c6973">Principal components</text>
  <text x="34" y="204" transform="rotate(-90 34 204)" text-anchor="middle" font-family="Georgia, serif" font-size="16" fill="#5c6973">Explained variance ratio</text>
  <rect x="90" y="100.6" width="64" height="219.4" rx="8" fill="#116e5f" opacity="0.82"/><text x="122" y="346" text-anchor="middle" font-family="Georgia, serif" font-size="13" fill="#55616b">PC1</text><text x="122" y="92.6" text-anchor="middle" font-family="Georgia, serif" font-size="12" fill="#55616b">28.3%</text><rect x="210" y="100.0" width="64" height="220.0" rx="8" fill="#116e5f" opacity="0.82"/><text x="242" y="346" text-anchor="middle" font-family="Georgia, serif" font-size="13" fill="#55616b">PC2</text><text x="242" y="92.0" text-anchor="middle" font-family="Georgia, serif" font-size="12" fill="#55616b">28.4%</text><rect x="330" y="144.8" width="64" height="175.2" rx="8" fill="#116e5f" opacity="0.82"/><text x="362" y="346" text-anchor="middle" font-family="Georgia, serif" font-size="13" fill="#55616b">PC3</text><text x="362" y="136.8" text-anchor="middle" font-family="Georgia, serif" font-size="12" fill="#55616b">22.6%</text><rect x="450" y="160.1" width="64" height="159.9" rx="8" fill="#116e5f" opacity="0.82"/><text x="482" y="346" text-anchor="middle" font-family="Georgia, serif" font-size="13" fill="#55616b">PC4</text><text x="482" y="152.1" text-anchor="middle" font-family="Georgia, serif" font-size="12" fill="#55616b">20.7%</text>
  <text x="40" y="26" font-family="Georgia, serif" font-size="24" fill="#172029">Breast Cancer PCA summary</text>
</svg>